# File produced by Open Asset Import Library (http://www.assimp.sf.net)
# (assimp v5.0.0)

mtllib cube.mtl

# 8 vertex positions
v  -5 5 5
v  5 -5 5
v  5 5 5
v  -5 -5 5
v  -5 -5 -5
v  5 5 -5
v  5 -5 -5
v  -5 5 -5

# 0 UV coordinates

# 6 vertex normals
vn 0 0 1
vn 0 0 -1
vn 0 -1 0
vn 1 0 0
vn 0 1 0
vn -1 0 0

# Mesh 'OpenSCAD_Model' with 12 faces
g OpenSCAD_Model
usemtl DefaultMaterial
f  1//1 2//1 3//1
f  2//1 1//1 4//1
f  5//2 6//2 7//2
f  6//2 5//2 8//2
f  5//3 2//3 4//3
f  2//3 5//3 7//3
f  2//4 6//4 3//4
f  6//4 2//4 7//4
f  6//5 1//5 3//5
f  1//5 6//5 8//5
f  5//6 1//6 8//6
f  1//6 5//6 4//6

