# Blender 4.2.0
# www.blender.org
mtllib tank.mtl
o Cube
v 1.000000 1.000000 -1.000000
v 1.000000 -1.000000 -1.000000
v 1.000000 1.000000 1.000000
v 1.000000 -1.000000 1.000000
v -1.000000 1.000000 -1.000000
v -1.000000 -1.000000 -1.000000
v -1.000000 1.000000 1.000000
v -1.000000 -1.000000 1.000000
vn -0.0000 1.0000 -0.0000
vn -0.0000 -0.0000 1.0000
vn -1.0000 -0.0000 -0.0000
vn -0.0000 -1.0000 -0.0000
vn 1.0000 -0.0000 -0.0000
vn -0.0000 -0.0000 -1.0000
vt 0.625000 0.500000
vt 0.875000 0.500000
vt 0.875000 0.750000
vt 0.625000 0.750000
vt 0.375000 0.750000
vt 0.625000 1.000000
vt 0.375000 1.000000
vt 0.375000 0.000000
vt 0.625000 0.000000
vt 0.625000 0.250000
vt 0.375000 0.250000
vt 0.125000 0.500000
vt 0.375000 0.500000
vt 0.125000 0.750000
s 0
usemtl Material
f 1/1/1 5/2/1 7/3/1 3/4/1
f 4/5/2 3/4/2 7/6/2 8/7/2
f 8/8/3 7/9/3 5/10/3 6/11/3
f 6/12/4 2/13/4 4/5/4 8/14/4
f 2/13/5 1/1/5 3/4/5 4/5/5
f 6/11/6 5/10/6 1/1/6 2/13/6
o tank
v 46.654922 3.696318 30.000000
v 46.654922 3.696318 35.000000
v 46.654922 -3.803682 30.000000
v 46.654922 -11.303682 25.000000
v 46.654922 -3.803682 25.000000
v 46.654922 -11.303682 35.000000
v -43.345078 3.696318 30.000000
v -43.345078 3.696318 35.000000
v -43.345078 -11.303682 35.000000
v -43.345078 -11.303682 25.000000
v -43.345078 -3.803682 30.000000
v -43.345078 -3.803682 25.000000
v 46.654922 -3.803682 -30.000000
v 46.654922 3.696318 -35.000000
v 46.654922 3.696318 -30.000000
v 46.654922 -11.303682 -35.000000
v 46.654922 -11.303682 -25.000000
v 46.654922 -3.803682 -25.000000
v -43.345078 3.696318 -35.000000
v -43.345078 3.696318 -30.000000
v -43.345078 -11.303682 -25.000000
v -43.345078 -11.303682 -35.000000
v -43.345078 -3.803682 -30.000000
v -43.345078 -3.803682 -25.000000
v 51.654922 26.196318 30.000000
v 51.654922 -3.803682 -30.000000
v 51.654922 26.196318 -30.000000
v 51.654922 -3.803682 30.000000
v 21.654922 26.196318 0.000000
v 21.217873 26.196318 -4.158234
v 19.925831 26.196318 -8.134732
v 17.835262 26.196318 -11.755705
v 15.037534 26.196318 -14.862896
v 11.654922 26.196318 -17.320507
v 7.835262 26.196318 -19.021130
v 3.745491 26.196318 -19.890438
v -0.435646 26.196318 -19.890438
v -17.908028 26.196318 -4.158234
v -48.345078 26.196318 -30.000000
v -18.345078 26.196318 0.000000
v -16.615986 26.196318 -8.134732
v -14.525417 26.196318 -11.755705
v -11.727689 26.196318 -14.862896
v -8.345078 26.196318 -17.320507
v -4.525417 26.196318 -19.021130
v 21.217873 26.196318 4.158234
v 19.925831 26.196318 8.134732
v 17.835262 26.196318 11.755705
v 15.037534 26.196318 14.862896
v 11.654922 26.196318 17.320507
v 7.835262 26.196318 19.021130
v 3.745491 26.196318 19.890438
v -0.435646 26.196318 19.890438
v -48.345078 26.196318 30.000000
v -17.908028 26.196318 4.158234
v -16.615986 26.196318 8.134732
v -4.525417 26.196318 19.021130
v -8.345078 26.196318 17.320507
v -11.727689 26.196318 14.862896
v -14.525417 26.196318 11.755705
v -48.345078 -3.803682 30.000000
v -48.345078 -3.803682 -30.000000
v -14.525417 46.196320 11.755705
v -11.727689 46.196320 14.862896
v 21.217873 46.196320 -4.158234
v 19.925831 46.196320 -8.134732
v 21.392160 36.196320 -2.500000
v 21.469122 37.964088 -1.767767
v 21.654922 38.696320 0.000000
v 21.654922 46.196320 0.000000
v 21.469122 34.428551 -1.767767
v 21.654922 33.696320 0.000000
v 17.835262 46.196320 -11.755705
v 19.925831 46.196320 8.134732
v 21.217873 46.196320 4.158234
v 15.037534 46.196320 14.862896
v 11.654922 46.196320 17.320507
v 17.835262 46.196320 11.755705
v 21.469122 37.964088 1.767767
v 21.392160 36.196320 2.500000
v 21.469122 34.428551 1.767767
v -4.525417 46.196320 19.021130
v -8.345078 46.196320 17.320507
v 7.835262 46.196320 -19.021130
v 11.654922 46.196320 -17.320507
v 15.037534 46.196320 -14.862896
v -11.727689 46.196320 -14.862896
v -14.525417 46.196320 -11.755705
v -0.435646 46.196320 -19.890438
v 3.745491 46.196320 -19.890438
v 7.835262 46.196320 19.021130
v 3.745491 46.196320 19.890438
v -16.615986 46.196320 -8.134732
v -17.908028 46.196320 -4.158234
v -17.908028 46.196320 4.158234
v -16.615986 46.196320 8.134732
v -8.345078 46.196320 -17.320507
v -4.525417 46.196320 -19.021130
v -0.435646 46.196320 19.890438
v -18.345078 46.196320 0.000000
v 51.654922 37.964088 1.767767
v 51.654922 38.696320 0.000000
v 51.654922 36.196320 2.500000
v 51.654922 34.428551 1.767767
v 51.654922 34.428551 -1.767767
v 51.654922 33.696320 0.000000
v 51.654922 36.196320 -2.500000
v 51.654922 37.964088 -1.767767
vn 0.3015 0.3015 0.9045
vn 0.5774 0.5774 0.5773
vn 0.9045 -0.3015 0.3015
vn 0.5774 -0.5773 -0.5774
vn 0.3015 -0.9045 -0.3015
vn 0.5774 -0.5773 0.5773
vn -0.3015 0.3015 0.9045
vn -0.5774 0.5773 0.5773
vn -0.5774 -0.5774 0.5773
vn -0.5774 -0.5773 -0.5773
vn -0.9045 -0.3015 0.3015
vn -0.3015 -0.9045 -0.3015
vn 0.9045 -0.3015 -0.3015
vn 0.5774 0.5773 -0.5773
vn 0.3015 0.3015 -0.9045
vn 0.5774 -0.5774 -0.5773
vn 0.3015 -0.9045 0.3015
vn -0.5774 0.5774 -0.5773
vn -0.3015 0.3015 -0.9045
vn -0.5774 -0.5773 0.5774
vn -0.9045 -0.3015 -0.3015
vn -0.3015 -0.9045 0.3015
vn 0.5774 0.5773 0.5773
vn 0.5773 -0.5774 -0.5774
vn 0.5774 0.5773 -0.5774
vn 0.5773 -0.5774 0.5773
vn 0.6819 0.7314 -0.0000
vn 0.6670 0.7314 -0.1418
vn 0.6230 0.7314 -0.2774
vn 0.5517 0.7314 -0.4008
vn 0.4563 0.7314 -0.5068
vn 0.3410 0.7314 -0.5906
vn 0.2107 0.7314 -0.6486
vn 0.0713 0.7314 -0.6782
vn -0.0713 0.7314 -0.6782
vn -0.6670 0.7314 -0.1418
vn -0.5774 0.5773 -0.5773
vn -0.6819 0.7314 -0.0000
vn -0.6230 0.7314 -0.2774
vn -0.5517 0.7314 -0.4008
vn -0.4563 0.7314 -0.5068
vn -0.3410 0.7314 -0.5906
vn -0.2107 0.7314 -0.6486
vn 0.6670 0.7314 0.1418
vn 0.6230 0.7314 0.2774
vn 0.5517 0.7314 0.4008
vn 0.4563 0.7314 0.5068
vn 0.3410 0.7314 0.5906
vn 0.2107 0.7314 0.6486
vn 0.0713 0.7314 0.6782
vn -0.0713 0.7314 0.6782
vn -0.5774 0.5773 0.5774
vn -0.6670 0.7314 0.1418
vn -0.6230 0.7314 0.2774
vn -0.2107 0.7314 0.6486
vn -0.3410 0.7314 0.5906
vn -0.4563 0.7314 0.5068
vn -0.5517 0.7314 0.4008
vn -0.5773 -0.5774 0.5774
vn -0.5773 -0.5774 -0.5773
vn -0.5899 0.6843 0.4286
vn -0.4879 0.6843 0.5419
vn 0.7132 0.6843 -0.1516
vn 0.6661 0.6843 -0.2966
vn 0.7700 -0.0000 -0.6380
vn 0.7775 0.3938 -0.4903
vn 0.7848 0.6198 -0.0000
vn 0.7292 0.6843 -0.0000
vn 0.7775 -0.3938 -0.4903
vn 0.7848 -0.6198 -0.0000
vn 0.5899 0.6843 -0.4286
vn 0.6661 0.6843 0.2966
vn 0.7132 0.6843 0.1516
vn 0.4879 0.6843 0.5419
vn 0.3646 0.6843 0.6315
vn 0.5899 0.6843 0.4286
vn 0.7775 0.3938 0.4903
vn 0.7700 -0.0000 0.6380
vn 0.7775 -0.3938 0.4903
vn -0.2253 0.6843 0.6935
vn -0.3646 0.6843 0.6315
vn 0.2253 0.6843 -0.6935
vn 0.3646 0.6843 -0.6315
vn 0.4879 0.6843 -0.5419
vn -0.4879 0.6843 -0.5419
vn -0.5899 0.6843 -0.4286
vn -0.0762 0.6843 -0.7252
vn 0.0762 0.6843 -0.7252
vn 0.2253 0.6843 0.6935
vn 0.0762 0.6843 0.7252
vn -0.6661 0.6843 -0.2966
vn -0.7132 0.6843 -0.1516
vn -0.7132 0.6843 0.1516
vn -0.6661 0.6843 0.2966
vn -0.3646 0.6843 -0.6315
vn -0.2253 0.6843 -0.6935
vn -0.0762 0.6843 0.7252
vn -0.7292 0.6843 -0.0000
vn 0.6302 0.5490 0.5490
vn 0.6303 0.7764 -0.0000
vn 0.6302 -0.0000 0.7764
vn 0.6303 -0.5490 0.5490
vn 0.6302 -0.5490 -0.5490
vn 0.6303 -0.7764 -0.0000
vn 0.6302 -0.0000 -0.7764
vn 0.6303 0.5490 -0.5490
s 1
f 9//7 10//8 11//9
f 11//9 12//10 13//11
f 14//12 11//9 10//8
f 11//9 14//12 12//10
f 15//13 10//8 9//7
f 10//8 15//13 16//14
f 17//15 12//10 14//12
f 12//10 17//15 18//16
f 18//16 19//17 20//18
f 17//15 19//17 18//16
f 16//14 19//17 17//15
f 19//17 16//14 15//13
f 12//10 20//18 13//11
f 20//18 12//10 18//16
f 17//15 10//8 16//14
f 10//8 17//15 14//12
f 21//19 22//20 23//21
f 22//20 21//19 24//22
f 25//12 21//19 26//23
f 21//19 25//12 24//22
f 27//24 23//21 22//20
f 23//21 27//24 28//25
f 29//26 24//22 25//12
f 24//22 29//26 30//16
f 30//16 31//27 27//24
f 29//26 31//27 30//16
f 31//27 29//26 32//28
f 27//24 31//27 28//25
f 24//22 27//24 22//20
f 27//24 24//22 30//16
f 29//26 26//23 32//28
f 26//23 29//26 25//12
f 33//29 34//30 35//31
f 34//30 33//29 36//32
f 35//31 37//33 33//29
f 35//31 38//34 37//33
f 35//31 39//35 38//34
f 35//31 40//36 39//35
f 35//31 41//37 40//36
f 35//31 42//38 41//37
f 35//31 43//39 42//38
f 35//31 44//40 43//39
f 35//31 45//41 44//40
f 46//42 47//43 48//44
f 49//45 47//43 46//42
f 50//46 47//43 49//45
f 51//47 47//43 50//46
f 52//48 47//43 51//47
f 53//49 47//43 52//48
f 45//41 47//43 53//49
f 47//43 45//41 35//31
f 54//50 33//29 37//33
f 55//51 33//29 54//50
f 56//52 33//29 55//51
f 57//53 33//29 56//52
f 58//54 33//29 57//53
f 59//55 33//29 58//54
f 60//56 33//29 59//55
f 61//57 33//29 60//56
f 62//58 48//44 47//43
f 48//44 62//58 63//59
f 63//59 62//58 64//60
f 61//57 62//58 33//29
f 65//61 62//58 61//57
f 66//62 62//58 65//61
f 67//63 62//58 66//62
f 68//64 62//58 67//63
f 64//60 62//58 68//64
f 69//65 20//18 19//17
f 20//18 69//65 32//28
f 70//66 32//28 69//65
f 32//28 70//66 31//27
f 20//18 26//23 13//11
f 26//23 20//18 32//28
f 13//11 36//32 11//9
f 36//32 13//11 34//30
f 26//23 34//30 13//11
f 34//30 26//23 21//19
f 69//65 47//43 70//66
f 47//43 69//65 62//58
f 35//31 23//21 47//43
f 34//30 23//21 35//31
f 23//21 34//30 21//19
f 28//25 47//43 23//21
f 70//66 28//25 31//27
f 28//25 70//66 47//43
f 62//58 15//13 33//29
f 69//65 15//13 62//58
f 15//13 69//65 19//17
f 9//7 33//29 15//13
f 36//32 9//7 11//9
f 9//7 36//32 33//29
f 67//63 71//67 68//64
f 71//67 67//63 72//68
f 73//69 39//35 74//70
f 39//35 73//69 38//34
f 73//69 75//71 38//34
f 73//69 76//72 75//71
f 77//73 73//69 78//74
f 73//69 77//73 76//72
f 79//75 38//34 75//71
f 80//76 38//34 79//75
f 38//34 80//76 37//33
f 74//70 40//36 81//77
f 40//36 74//70 39//35
f 82//78 54//50 83//79
f 54//50 82//78 55//51
f 58//54 84//80 85//81
f 84//80 58//54 57//53
f 84//80 56//52 86//82
f 56//52 84//80 57//53
f 83//79 77//73 78//74
f 77//73 83//79 87//83
f 87//83 83//79 88//84
f 54//50 80//76 89//85
f 54//50 89//85 88//84
f 80//76 54//50 37//33
f 54//50 88//84 83//79
f 66//62 90//86 91//87
f 90//86 66//62 65//61
f 42//38 92//88 93//89
f 92//88 42//38 43//39
f 81//77 41//37 94//90
f 41//37 81//77 40//36
f 67//63 91//87 72//68
f 91//87 67//63 66//62
f 50//46 95//91 51//47
f 95//91 50//46 96//92
f 44//40 97//93 98//94
f 97//93 44//40 45//41
f 59//55 85//81 99//95
f 85//81 59//55 58//54
f 60//56 99//95 100//96
f 99//95 60//56 59//55
f 46//42 101//97 49//45
f 101//97 46//42 102//98
f 64//60 103//99 63//59
f 103//99 64//60 104//100
f 53//49 105//101 106//102
f 105//101 53//49 52//48
f 73//69 83//79 78//74
f 74//70 83//79 73//69
f 74//70 82//78 83//79
f 81//77 82//78 74//70
f 81//77 86//82 82//78
f 94//90 86//82 81//77
f 94//90 84//80 86//82
f 93//89 84//80 94//90
f 93//89 85//81 84//80
f 92//88 85//81 93//89
f 92//88 99//95 85//81
f 98//94 99//95 92//88
f 98//94 100//96 99//95
f 97//93 100//96 98//94
f 97//93 107//103 100//96
f 106//102 107//103 97//93
f 106//102 90//86 107//103
f 105//101 90//86 106//102
f 105//101 91//87 90//86
f 95//91 91//87 105//101
f 95//91 72//68 91//87
f 96//92 72//68 95//91
f 96//92 71//67 72//68
f 101//97 71//67 96//92
f 101//97 104//100 71//67
f 102//98 104//100 101//97
f 102//98 103//99 104//100
f 103//99 102//98 108//104
f 65//61 107//103 90//86
f 107//103 65//61 61//57
f 43//39 98//94 92//88
f 98//94 43//39 44//40
f 63//59 108//104 48//44
f 108//104 63//59 103//99
f 48//44 102//98 46//42
f 102//98 48//44 108//104
f 68//64 104//100 64//60
f 104//100 68//64 71//67
f 49//45 96//92 50//46
f 96//92 49//45 101//97
f 86//82 55//51 82//78
f 55//51 86//82 56//52
f 41//37 93//89 94//90
f 93//89 41//37 42//38
f 52//48 95//91 105//101
f 95//91 52//48 51//47
f 45//41 106//102 97//93
f 106//102 45//41 53//49
f 61//57 100//96 107//103
f 100//96 61//57 60//56
f 77//73 109//105 110//106
f 109//105 77//73 87//83
f 89//85 111//107 88//84
f 111//107 89//85 112//108
f 80//76 113//109 114//110
f 113//109 80//76 79//75
f 79//75 115//111 113//109
f 115//111 79//75 75//71
f 112//108 80//76 114//110
f 80//76 112//108 89//85
f 111//107 87//83 88//84
f 87//83 111//107 109//105
f 116//112 113//109 115//111
f 110//106 113//109 116//112
f 110//106 114//110 113//109
f 109//105 114//110 110//106
f 109//105 112//108 114//110
f 112//108 109//105 111//107
f 116//112 77//73 110//106
f 77//73 116//112 76//72
f 115//111 76//72 116//112
f 76//72 115//111 75//71
