solid OpenSCAD_Model
  facet normal 1 0 0
    outer loop
      vertex 45 -30 7.5
      vertex 45 -35 7.5
      vertex 45 -30 0
    endloop
  endfacet
  facet normal 1 -0 0
    outer loop
      vertex 45 -30 0
      vertex 45 -25 -7.5
      vertex 45 -25 0
    endloop
  endfacet
  facet normal 1 0 0
    outer loop
      vertex 45 -35 -7.5
      vertex 45 -30 0
      vertex 45 -35 7.5
    endloop
  endfacet
  facet normal 1 0 0
    outer loop
      vertex 45 -30 0
      vertex 45 -35 -7.5
      vertex 45 -25 -7.5
    endloop
  endfacet
  facet normal -0 0 1
    outer loop
      vertex -45 -30 7.5
      vertex 45 -35 7.5
      vertex 45 -30 7.5
    endloop
  endfacet
  facet normal 0 0 1
    outer loop
      vertex 45 -35 7.5
      vertex -45 -30 7.5
      vertex -45 -35 7.5
    endloop
  endfacet
  facet normal 0 0 -1
    outer loop
      vertex -45 -35 -7.5
      vertex 45 -25 -7.5
      vertex 45 -35 -7.5
    endloop
  endfacet
  facet normal -0 0 -1
    outer loop
      vertex 45 -25 -7.5
      vertex -45 -35 -7.5
      vertex -45 -25 -7.5
    endloop
  endfacet
  facet normal -1 0 0
    outer loop
      vertex -45 -25 -7.5
      vertex -45 -30 0
      vertex -45 -25 0
    endloop
  endfacet
  facet normal -1 0 0
    outer loop
      vertex -45 -35 -7.5
      vertex -45 -30 0
      vertex -45 -25 -7.5
    endloop
  endfacet
  facet normal -1 0 0
    outer loop
      vertex -45 -35 7.5
      vertex -45 -30 0
      vertex -45 -35 -7.5
    endloop
  endfacet
  facet normal -1 0 0
    outer loop
      vertex -45 -30 0
      vertex -45 -35 7.5
      vertex -45 -30 7.5
    endloop
  endfacet
  facet normal 0 1 -0
    outer loop
      vertex 45 -25 -7.5
      vertex -45 -25 0
      vertex 45 -25 0
    endloop
  endfacet
  facet normal 0 1 0
    outer loop
      vertex -45 -25 0
      vertex 45 -25 -7.5
      vertex -45 -25 -7.5
    endloop
  endfacet
  facet normal 0 -1 0
    outer loop
      vertex -45 -35 -7.5
      vertex 45 -35 7.5
      vertex -45 -35 7.5
    endloop
  endfacet
  facet normal 0 -1 -0
    outer loop
      vertex 45 -35 7.5
      vertex -45 -35 -7.5
      vertex 45 -35 -7.5
    endloop
  endfacet
  facet normal 1 0 0
    outer loop
      vertex 45 30 0
      vertex 45 35 7.5
      vertex 45 30 7.5
    endloop
  endfacet
  facet normal 1 0 0
    outer loop
      vertex 45 35 7.5
      vertex 45 30 0
      vertex 45 35 -7.5
    endloop
  endfacet
  facet normal 1 0 0
    outer loop
      vertex 45 25 -7.5
      vertex 45 30 0
      vertex 45 25 0
    endloop
  endfacet
  facet normal 1 0 0
    outer loop
      vertex 45 30 0
      vertex 45 25 -7.5
      vertex 45 35 -7.5
    endloop
  endfacet
  facet normal -0 0 1
    outer loop
      vertex -45 35 7.5
      vertex 45 30 7.5
      vertex 45 35 7.5
    endloop
  endfacet
  facet normal 0 0 1
    outer loop
      vertex 45 30 7.5
      vertex -45 35 7.5
      vertex -45 30 7.5
    endloop
  endfacet
  facet normal 0 0 -1
    outer loop
      vertex -45 25 -7.5
      vertex 45 35 -7.5
      vertex 45 25 -7.5
    endloop
  endfacet
  facet normal -0 0 -1
    outer loop
      vertex 45 35 -7.5
      vertex -45 25 -7.5
      vertex -45 35 -7.5
    endloop
  endfacet
  facet normal -1 0 0
    outer loop
      vertex -45 35 -7.5
      vertex -45 30 0
      vertex -45 35 7.5
    endloop
  endfacet
  facet normal -1 0 0
    outer loop
      vertex -45 25 -7.5
      vertex -45 30 0
      vertex -45 35 -7.5
    endloop
  endfacet
  facet normal -1 -0 0
    outer loop
      vertex -45 30 0
      vertex -45 25 -7.5
      vertex -45 25 0
    endloop
  endfacet
  facet normal -1 -0 0
    outer loop
      vertex -45 35 7.5
      vertex -45 30 0
      vertex -45 30 7.5
    endloop
  endfacet
  facet normal 0 1 -0
    outer loop
      vertex 45 35 -7.5
      vertex -45 35 7.5
      vertex 45 35 7.5
    endloop
  endfacet
  facet normal 0 1 0
    outer loop
      vertex -45 35 7.5
      vertex 45 35 -7.5
      vertex -45 35 -7.5
    endloop
  endfacet
  facet normal 0 -1 0
    outer loop
      vertex -45 25 -7.5
      vertex 45 25 0
      vertex -45 25 0
    endloop
  endfacet
  facet normal 0 -1 -0
    outer loop
      vertex 45 25 0
      vertex -45 25 -7.5
      vertex 45 25 -7.5
    endloop
  endfacet
  facet normal 1 -0 0
    outer loop
      vertex 50 -30 30
      vertex 50 30 0
      vertex 50 30 30
    endloop
  endfacet
  facet normal 1 0 0
    outer loop
      vertex 50 30 0
      vertex 50 -30 30
      vertex 50 -30 0
    endloop
  endfacet
  facet normal -0 0 1
    outer loop
      vertex -50 30 30
      vertex 50 -30 30
      vertex 50 30 30
    endloop
  endfacet
  facet normal 0 0 1
    outer loop
      vertex 50 -30 30
      vertex -50 30 30
      vertex -50 -30 30
    endloop
  endfacet
  facet normal 0 0 -1
    outer loop
      vertex -50 -30 0
      vertex -45 -25 0
      vertex -45 -30 0
    endloop
  endfacet
  facet normal -0 0 -1
    outer loop
      vertex -45 -25 0
      vertex -50 -30 0
      vertex -45 25 0
    endloop
  endfacet
  facet normal 0 0 -1
    outer loop
      vertex -50 30 0
      vertex -45 25 0
      vertex -50 -30 0
    endloop
  endfacet
  facet normal 0 0 -1
    outer loop
      vertex -45 25 0
      vertex -50 30 0
      vertex -45 30 0
    endloop
  endfacet
  facet normal 0 0 -1
    outer loop
      vertex -45 -25 0
      vertex 45 25 0
      vertex 45 -25 0
    endloop
  endfacet
  facet normal -0 0 -1
    outer loop
      vertex 45 25 0
      vertex -45 -25 0
      vertex -45 25 0
    endloop
  endfacet
  facet normal 0 0 -1
    outer loop
      vertex 45 -25 0
      vertex 50 -30 0
      vertex 45 -30 0
    endloop
  endfacet
  facet normal 0 0 -1
    outer loop
      vertex 50 -30 0
      vertex 45 -25 0
      vertex 50 30 0
    endloop
  endfacet
  facet normal 0 0 -1
    outer loop
      vertex 45 25 0
      vertex 50 30 0
      vertex 45 -25 0
    endloop
  endfacet
  facet normal -0 0 -1
    outer loop
      vertex 50 30 0
      vertex 45 25 0
      vertex 45 30 0
    endloop
  endfacet
  facet normal -1 0 0
    outer loop
      vertex -50 -30 0
      vertex -50 30 30
      vertex -50 30 0
    endloop
  endfacet
  facet normal -1 -0 0
    outer loop
      vertex -50 30 30
      vertex -50 -30 0
      vertex -50 -30 30
    endloop
  endfacet
  facet normal 0 1 0
    outer loop
      vertex 50 30 30
      vertex 45 30 7.5
      vertex -50 30 30
    endloop
  endfacet
  facet normal 0 1 -0
    outer loop
      vertex 50 30 0
      vertex 45 30 7.5
      vertex 50 30 30
    endloop
  endfacet
  facet normal 0 1 0
    outer loop
      vertex 45 30 7.5
      vertex 50 30 0
      vertex 45 30 0
    endloop
  endfacet
  facet normal 0 1 -0
    outer loop
      vertex -45 30 7.5
      vertex -50 30 30
      vertex 45 30 7.5
    endloop
  endfacet
  facet normal 0 1 0
    outer loop
      vertex -50 30 0
      vertex -45 30 7.5
      vertex -45 30 0
    endloop
  endfacet
  facet normal 0 1 0
    outer loop
      vertex -45 30 7.5
      vertex -50 30 0
      vertex -50 30 30
    endloop
  endfacet
  facet normal 0 -1 0
    outer loop
      vertex -50 -30 30
      vertex -45 -30 7.5
      vertex 50 -30 30
    endloop
  endfacet
  facet normal 0 -1 0
    outer loop
      vertex -50 -30 0
      vertex -45 -30 7.5
      vertex -50 -30 30
    endloop
  endfacet
  facet normal 0 -1 -0
    outer loop
      vertex -45 -30 7.5
      vertex -50 -30 0
      vertex -45 -30 0
    endloop
  endfacet
  facet normal 0 -1 0
    outer loop
      vertex 45 -30 7.5
      vertex 50 -30 30
      vertex -45 -30 7.5
    endloop
  endfacet
  facet normal 0 -1 0
    outer loop
      vertex 50 -30 0
      vertex 45 -30 7.5
      vertex 45 -30 0
    endloop
  endfacet
  facet normal 0 -1 0
    outer loop
      vertex 45 -30 7.5
      vertex 50 -30 0
      vertex 50 -30 30
    endloop
  endfacet
endsolid OpenSCAD_Model
