# File produced by Open Asset Import Library (http://www.assimp.sf.net)
# (assimp v5.0.0)

mtllib tank1.mtl

# 108 vertex positions
v  45 -30 7.5
v  45 -35 7.5
v  45 -30 0
v  45 -25 -7.5
v  45 -25 0
v  45 -35 -7.5
v  -45 -30 7.5
v  -45 -35 7.5
v  -45 -35 -7.5
v  -45 -25 -7.5
v  -45 -30 0
v  -45 -25 0
v  45 30 0
v  45 35 7.5
v  45 30 7.5
v  45 35 -7.5
v  45 25 -7.5
v  45 25 0
v  -45 35 7.5
v  -45 30 7.5
v  -45 25 -7.5
v  -45 35 -7.5
v  -45 30 0
v  -45 25 0
v  50 -30 30
v  50 30 0
v  50 30 30
v  50 -30 0
v  20 0 30
v  19.56295 4.1582336 30
v  18.270908 8.1347322 30
v  16.18034 11.755705 30
v  13.382611 14.862896 30
v  10 17.320507 30
v  6.1803398 19.02113 30
v  2.0905685 19.890438 30
v  -2.0905685 19.890438 30
v  -19.56295 4.1582336 30
v  -50 30 30
v  -20 0 30
v  -18.270908 8.1347322 30
v  -16.18034 11.755705 30
v  -13.382611 14.862896 30
v  -10 17.320507 30
v  -6.1803398 19.02113 30
v  19.56295 -4.1582336 30
v  18.270908 -8.1347322 30
v  16.18034 -11.755705 30
v  13.382611 -14.862896 30
v  10 -17.320507 30
v  6.1803398 -19.02113 30
v  2.0905685 -19.890438 30
v  -2.0905685 -19.890438 30
v  -50 -30 30
v  -19.56295 -4.1582336 30
v  -18.270908 -8.1347322 30
v  -6.1803398 -19.02113 30
v  -10 -17.320507 30
v  -13.382611 -14.862896 30
v  -16.18034 -11.755705 30
v  -50 -30 0
v  -50 30 0
v  -16.18034 -11.755705 50
v  -13.382611 -14.862896 50
v  19.56295 4.1582336 50
v  18.270908 8.1347322 50
v  19.737238 2.5 40
v  19.814199 1.767767 41.767769
v  20 0 42.5
v  20 0 50
v  19.814199 1.767767 38.232231
v  20 0 37.5
v  16.18034 11.755705 50
v  18.270908 -8.1347322 50
v  19.56295 -4.1582336 50
v  13.382611 -14.862896 50
v  10 -17.320507 50
v  16.18034 -11.755705 50
v  19.814199 -1.767767 41.767769
v  19.737238 -2.5 40
v  19.814199 -1.767767 38.232231
v  -6.1803398 -19.02113 50
v  -10 -17.320507 50
v  6.1803398 19.02113 50
v  10 17.320507 50
v  13.382611 14.862896 50
v  -13.382611 14.862896 50
v  -16.18034 11.755705 50
v  -2.0905685 19.890438 50
v  2.0905685 19.890438 50
v  6.1803398 -19.02113 50
v  2.0905685 -19.890438 50
v  -18.270908 8.1347322 50
v  -19.56295 4.1582336 50
v  -19.56295 -4.1582336 50
v  -18.270908 -8.1347322 50
v  -10 17.320507 50
v  -6.1803398 19.02113 50
v  -2.0905685 -19.890438 50
v  -20 0 50
v  50 -1.767767 41.767769
v  50 0 42.5
v  50 -2.5 40
v  50 -1.767767 38.232231
v  50 1.767767 38.232231
v  50 0 37.5
v  50 2.5 40
v  50 1.767767 41.767769

# 0 UV coordinates

# 56 vertex normals
vn 1 0 0
vn 0 0 1
vn 0 0 -1
vn -1 0 0
vn 0 1 0
vn 0 -1 0
vn -0.74314475 -0.6691308 0
vn 0.9510566 0.30901682 0
vn 0.99452186 0.10452871 0
vn 0.9945218 0.10452923 -8.6717129e-08
vn 0.99452186 0.10452891 0
vn 0.99452192 0.1045289 7.2720332e-09
vn 0.9945218 0.10452923 8.6717129e-08
vn 0.99452192 0.1045289 -1.4544066e-08
vn 0.86602545 0.49999982 0
vn 0.9510566 -0.30901682 0
vn 0.5877853 -0.80901694 0
vn 0.74314475 -0.6691308 0
vn 0.99452186 -0.10452891 0
vn 0.99452192 -0.1045289 1.4544066e-08
vn 0.9945218 -0.10452923 -8.6717129e-08
vn 0.99452192 -0.1045289 -7.2720332e-09
vn 0.9945218 -0.10452923 8.6717129e-08
vn 0.99452186 -0.10452871 0
vn -0.4067367 -0.91354543 0
vn 0.4067367 0.91354543 0
vn 0.74314475 0.6691308 0
vn -0.5877853 -0.80901694 0
vn -0.74314475 0.6691308 0
vn 0.4067367 -0.91354543 0
vn 0.20791186 -0.97814757 0
vn -0.9510566 0.30901682 0
vn -0.9510566 -0.30901682 0
vn -0.4067367 0.91354543 0
vn -0.20791186 -0.97814757 0
vn 0.20791186 0.97814757 0
vn -0.99452186 -0.10452891 0
vn -0.99452186 0.10452891 0
vn -0.86602545 -0.49999982 0
vn -0.86602545 0.49999982 0
vn 0.86602545 -0.49999982 0
vn 0.5877853 0.80901694 0
vn -0.5877853 0.80901694 0
vn -0.20791186 0.97814757 0
vn 0 -0.38268259 0.92387992
vn 0 -0.92387968 -0.3826831
vn 0 -0.92387968 -0.38268307
vn 0 0.38268259 -0.92387992
vn 0 0.92387968 -0.38268307
vn 0 0.92387968 -0.3826831
vn 0 -0.38268259 -0.92387992
vn 0 -0.92387968 0.3826831
vn 0 -0.92387968 0.38268307
vn 0 0.38268259 0.92387992
vn 0 0.92387968 0.38268307
vn 0 0.92387968 0.3826831

# Mesh '' with 212 faces
usemtl DefaultMaterial
f  1//1 2//1 3//1
f  3//1 4//1 5//1
f  6//1 3//1 2//1
f  3//1 6//1 4//1
f  7//2 2//2 1//2
f  2//2 7//2 8//2
f  9//3 4//3 6//3
f  4//3 9//3 10//3
f  10//4 11//4 12//4
f  9//4 11//4 10//4
f  8//4 11//4 9//4
f  11//4 8//4 7//4
f  4//5 12//5 5//5
f  12//5 4//5 10//5
f  9//6 2//6 8//6
f  2//6 9//6 6//6
f  13//1 14//1 15//1
f  14//1 13//1 16//1
f  17//1 13//1 18//1
f  13//1 17//1 16//1
f  19//2 15//2 14//2
f  15//2 19//2 20//2
f  21//3 16//3 17//3
f  16//3 21//3 22//3
f  22//4 23//4 19//4
f  21//4 23//4 22//4
f  23//4 21//4 24//4
f  19//4 23//4 20//4
f  16//5 19//5 14//5
f  19//5 16//5 22//5
f  21//6 18//6 24//6
f  18//6 21//6 17//6
f  25//1 26//1 27//1
f  26//1 25//1 28//1
f  27//2 29//2 25//2
f  27//2 30//2 29//2
f  27//2 31//2 30//2
f  27//2 32//2 31//2
f  27//2 33//2 32//2
f  27//2 34//2 33//2
f  27//2 35//2 34//2
f  27//2 36//2 35//2
f  27//2 37//2 36//2
f  38//2 39//2 40//2
f  41//2 39//2 38//2
f  42//2 39//2 41//2
f  43//2 39//2 42//2
f  44//2 39//2 43//2
f  45//2 39//2 44//2
f  37//2 39//2 45//2
f  39//2 37//2 27//2
f  46//2 25//2 29//2
f  47//2 25//2 46//2
f  48//2 25//2 47//2
f  49//2 25//2 48//2
f  50//2 25//2 49//2
f  51//2 25//2 50//2
f  52//2 25//2 51//2
f  53//2 25//2 52//2
f  54//2 40//2 39//2
f  40//2 54//2 55//2
f  55//2 54//2 56//2
f  53//2 54//2 25//2
f  57//2 54//2 53//2
f  58//2 54//2 57//2
f  59//2 54//2 58//2
f  60//2 54//2 59//2
f  56//2 54//2 60//2
f  61//3 12//3 11//3
f  12//3 61//3 24//3
f  62//3 24//3 61//3
f  24//3 62//3 23//3
f  12//3 18//3 5//3
f  18//3 12//3 24//3
f  5//3 28//3 3//3
f  28//3 5//3 26//3
f  18//3 26//3 5//3
f  26//3 18//3 13//3
f  61//4 39//4 62//4
f  39//4 61//4 54//4
f  27//5 15//5 39//5
f  26//5 15//5 27//5
f  15//5 26//5 13//5
f  20//5 39//5 15//5
f  62//5 20//5 23//5
f  20//5 62//5 39//5
f  54//6 7//6 25//6
f  61//6 7//6 54//6
f  7//6 61//6 11//6
f  1//6 25//6 7//6
f  28//6 1//6 3//6
f  1//6 28//6 25//6
f  59//7 63//7 60//7
f  63//7 59//7 64//7
f  65//8 31//8 66//8
f  31//8 65//8 30//8
f  65//9 67//9 30//9
f  65//10 68//10 67//10
f  69//11 65//11 70//11
f  65//12 69//12 68//12
f  71//13 30//13 67//13
f  72//14 30//14 71//14
f  30//11 72//11 29//11
f  66//15 32//15 73//15
f  32//15 66//15 31//15
f  74//16 46//16 75//16
f  46//16 74//16 47//16
f  50//17 76//17 77//17
f  76//17 50//17 49//17
f  76//18 48//18 78//18
f  48//18 76//18 49//18
f  75//19 69//19 70//19
f  69//20 75//20 79//20
f  79//21 75//21 80//21
f  46//22 72//22 81//22
f  46//23 81//23 80//23
f  72//19 46//19 29//19
f  46//24 80//24 75//24
f  58//25 82//25 83//25
f  82//25 58//25 57//25
f  34//26 84//26 85//26
f  84//26 34//26 35//26
f  73//27 33//27 86//27
f  33//27 73//27 32//27
f  59//28 83//28 64//28
f  83//28 59//28 58//28
f  42//29 87//29 43//29
f  87//29 42//29 88//29
f  36//5 89//5 90//5
f  89//5 36//5 37//5
f  51//30 77//30 91//30
f  77//30 51//30 50//30
f  52//31 91//31 92//31
f  91//31 52//31 51//31
f  38//32 93//32 41//32
f  93//32 38//32 94//32
f  56//33 95//33 55//33
f  95//33 56//33 96//33
f  45//34 97//34 98//34
f  97//34 45//34 44//34
f  65//2 75//2 70//2
f  66//2 75//2 65//2
f  66//2 74//2 75//2
f  73//2 74//2 66//2
f  73//2 78//2 74//2
f  86//2 78//2 73//2
f  86//2 76//2 78//2
f  85//2 76//2 86//2
f  85//2 77//2 76//2
f  84//2 77//2 85//2
f  84//2 91//2 77//2
f  90//2 91//2 84//2
f  90//2 92//2 91//2
f  89//2 92//2 90//2
f  89//2 99//2 92//2
f  98//2 99//2 89//2
f  98//2 82//2 99//2
f  97//2 82//2 98//2
f  97//2 83//2 82//2
f  87//2 83//2 97//2
f  87//2 64//2 83//2
f  88//2 64//2 87//2
f  88//2 63//2 64//2
f  93//2 63//2 88//2
f  93//2 96//2 63//2
f  94//2 96//2 93//2
f  94//2 95//2 96//2
f  95//2 94//2 100//2
f  57//35 99//35 82//35
f  99//35 57//35 53//35
f  35//36 90//36 84//36
f  90//36 35//36 36//36
f  55//37 100//37 40//37
f  100//37 55//37 95//37
f  40//38 94//38 38//38
f  94//38 40//38 100//38
f  60//39 96//39 56//39
f  96//39 60//39 63//39
f  41//40 88//40 42//40
f  88//40 41//40 93//40
f  78//41 47//41 74//41
f  47//41 78//41 48//41
f  33//42 85//42 86//42
f  85//42 33//42 34//42
f  44//43 87//43 97//43
f  87//43 44//43 43//43
f  37//44 98//44 89//44
f  98//44 37//44 45//44
f  53//6 92//6 99//6
f  92//6 53//6 52//6
f  69//45 101//45 102//45
f  101//45 69//45 79//45
f  81//46 103//46 80//46
f  103//47 81//47 104//47
f  72//48 105//48 106//48
f  105//48 72//48 71//48
f  71//49 107//49 105//49
f  107//50 71//50 67//50
f  104//51 72//51 106//51
f  72//51 104//51 81//51
f  103//52 79//52 80//52
f  79//53 103//53 101//53
f  108//1 105//1 107//1
f  102//1 105//1 108//1
f  102//1 106//1 105//1
f  101//1 106//1 102//1
f  101//1 104//1 106//1
f  104//1 101//1 103//1
f  108//54 69//54 102//54
f  69//54 108//54 68//54
f  107//55 68//55 108//55
f  68//56 107//56 67//56

