solid OpenSCAD_Model
  facet normal 0.587785 0.809017 -0
    outer loop
      vertex 13.3826 14.8629 30
      vertex 10 17.3205 50
      vertex 13.3826 14.8629 50
    endloop
  endfacet
  facet normal 0.587785 0.809017 0
    outer loop
      vertex 10 17.3205 50
      vertex 13.3826 14.8629 30
      vertex 10 17.3205 30
    endloop
  endfacet
  facet normal -0.866022 0.500006 0
    outer loop
      vertex -18.2709 8.13473 30
      vertex -16.1803 11.7557 50
      vertex -16.1803 11.7557 30
    endloop
  endfacet
  facet normal -0.866022 0.500006 0
    outer loop
      vertex -16.1803 11.7557 50
      vertex -18.2709 8.13473 30
      vertex -18.2709 8.13473 50
    endloop
  endfacet
  facet normal 0.994523 -0.104517 0
    outer loop
      vertex 19.563 -4.15823 50
      vertex 20 0 42.5
      vertex 20 0 50
    endloop
  endfacet
  facet normal 0.994522 -0.104526 -5.10251e-06
    outer loop
      vertex 20 0 42.5
      vertex 19.563 -4.15823 50
      vertex 19.8142 -1.76777 41.7678
    endloop
  endfacet
  facet normal 0.994519 -0.104552 -1.25355e-05
    outer loop
      vertex 19.8142 -1.76777 41.7678
      vertex 19.563 -4.15823 50
      vertex 19.7372 -2.5 40
    endloop
  endfacet
  facet normal 0.994522 -0.104526 5.10251e-06
    outer loop
      vertex 19.563 -4.15823 30
      vertex 20 0 37.5
      vertex 19.8142 -1.76777 38.2322
    endloop
  endfacet
  facet normal 0.994519 -0.104552 1.25355e-05
    outer loop
      vertex 19.563 -4.15823 30
      vertex 19.8142 -1.76777 38.2322
      vertex 19.7372 -2.5 40
    endloop
  endfacet
  facet normal 0.994523 -0.104517 0
    outer loop
      vertex 20 0 37.5
      vertex 19.563 -4.15823 30
      vertex 20 0 30
    endloop
  endfacet
  facet normal 0.994527 -0.104477 0
    outer loop
      vertex 19.563 -4.15823 30
      vertex 19.7372 -2.5 40
      vertex 19.563 -4.15823 50
    endloop
  endfacet
  facet normal 0.587785 -0.809017 0
    outer loop
      vertex 10 -17.3205 30
      vertex 13.3826 -14.8629 50
      vertex 10 -17.3205 50
    endloop
  endfacet
  facet normal 0.587785 -0.809017 0
    outer loop
      vertex 13.3826 -14.8629 50
      vertex 10 -17.3205 30
      vertex 13.3826 -14.8629 30
    endloop
  endfacet
  facet normal 0.866022 0.500006 0
    outer loop
      vertex 18.2709 8.13473 50
      vertex 16.1803 11.7557 30
      vertex 16.1803 11.7557 50
    endloop
  endfacet
  facet normal 0.866022 0.500006 0
    outer loop
      vertex 16.1803 11.7557 30
      vertex 18.2709 8.13473 50
      vertex 18.2709 8.13473 30
    endloop
  endfacet
  facet normal -0.994523 0.104517 0
    outer loop
      vertex -20 0 30
      vertex -19.563 4.15823 50
      vertex -19.563 4.15823 30
    endloop
  endfacet
  facet normal -0.994523 0.104517 0
    outer loop
      vertex -19.563 4.15823 50
      vertex -20 0 30
      vertex -20 0 50
    endloop
  endfacet
  facet normal 0.994527 0.104477 0
    outer loop
      vertex 19.563 4.15823 50
      vertex 19.7372 2.5 40
      vertex 19.563 4.15823 30
    endloop
  endfacet
  facet normal 0.994519 0.104552 -1.25355e-05
    outer loop
      vertex 19.563 4.15823 50
      vertex 19.8142 1.76777 41.7678
      vertex 19.7372 2.5 40
    endloop
  endfacet
  facet normal 0.994523 0.104517 -0
    outer loop
      vertex 20 0 42.5
      vertex 19.563 4.15823 50
      vertex 20 0 50
    endloop
  endfacet
  facet normal 0.994522 0.104526 -5.10251e-06
    outer loop
      vertex 19.563 4.15823 50
      vertex 20 0 42.5
      vertex 19.8142 1.76777 41.7678
    endloop
  endfacet
  facet normal 0.994519 0.104552 1.25355e-05
    outer loop
      vertex 19.8142 1.76777 38.2322
      vertex 19.563 4.15823 30
      vertex 19.7372 2.5 40
    endloop
  endfacet
  facet normal 0.994522 0.104526 5.10251e-06
    outer loop
      vertex 20 0 37.5
      vertex 19.563 4.15823 30
      vertex 19.8142 1.76777 38.2322
    endloop
  endfacet
  facet normal 0.994523 0.104517 0
    outer loop
      vertex 19.563 4.15823 30
      vertex 20 0 37.5
      vertex 20 0 30
    endloop
  endfacet
  facet normal -0.866022 -0.500006 0
    outer loop
      vertex -16.1803 -11.7557 30
      vertex -18.2709 -8.13473 50
      vertex -18.2709 -8.13473 30
    endloop
  endfacet
  facet normal -0.866022 -0.500006 0
    outer loop
      vertex -18.2709 -8.13473 50
      vertex -16.1803 -11.7557 30
      vertex -16.1803 -11.7557 50
    endloop
  endfacet
  facet normal -0.743149 -0.669126 0
    outer loop
      vertex -13.3826 -14.8629 30
      vertex -16.1803 -11.7557 50
      vertex -16.1803 -11.7557 30
    endloop
  endfacet
  facet normal -0.743149 -0.669126 0
    outer loop
      vertex -16.1803 -11.7557 50
      vertex -13.3826 -14.8629 30
      vertex -13.3826 -14.8629 50
    endloop
  endfacet
  facet normal -0.951053 0.309029 0
    outer loop
      vertex -19.563 4.15823 30
      vertex -18.2709 8.13473 50
      vertex -18.2709 8.13473 30
    endloop
  endfacet
  facet normal -0.951053 0.309029 0
    outer loop
      vertex -18.2709 8.13473 50
      vertex -19.563 4.15823 30
      vertex -19.563 4.15823 50
    endloop
  endfacet
  facet normal 0 -1 0
    outer loop
      vertex -2.09057 -19.8904 30
      vertex 2.09057 -19.8904 50
      vertex -2.09057 -19.8904 50
    endloop
  endfacet
  facet normal 0 -1 -0
    outer loop
      vertex 2.09057 -19.8904 50
      vertex -2.09057 -19.8904 30
      vertex 2.09057 -19.8904 30
    endloop
  endfacet
  facet normal 0.406732 -0.913547 0
    outer loop
      vertex 6.18034 -19.0211 30
      vertex 10 -17.3205 50
      vertex 6.18034 -19.0211 50
    endloop
  endfacet
  facet normal 0.406732 -0.913547 0
    outer loop
      vertex 10 -17.3205 50
      vertex 6.18034 -19.0211 30
      vertex 10 -17.3205 30
    endloop
  endfacet
  facet normal -0.20791 0.978148 0
    outer loop
      vertex -2.09057 19.8904 30
      vertex -6.18034 19.0211 50
      vertex -2.09057 19.8904 50
    endloop
  endfacet
  facet normal -0.20791 0.978148 0
    outer loop
      vertex -6.18034 19.0211 50
      vertex -2.09057 19.8904 30
      vertex -6.18034 19.0211 30
    endloop
  endfacet
  facet normal 0.951053 0.309029 0
    outer loop
      vertex 19.563 4.15823 50
      vertex 18.2709 8.13473 30
      vertex 18.2709 8.13473 50
    endloop
  endfacet
  facet normal 0.951053 0.309029 0
    outer loop
      vertex 18.2709 8.13473 30
      vertex 19.563 4.15823 50
      vertex 19.563 4.15823 30
    endloop
  endfacet
  facet normal 0.20791 -0.978148 0
    outer loop
      vertex 2.09057 -19.8904 30
      vertex 6.18034 -19.0211 50
      vertex 2.09057 -19.8904 50
    endloop
  endfacet
  facet normal 0.20791 -0.978148 0
    outer loop
      vertex 6.18034 -19.0211 50
      vertex 2.09057 -19.8904 30
      vertex 6.18034 -19.0211 30
    endloop
  endfacet
  facet normal 0.951053 -0.309029 0
    outer loop
      vertex 18.2709 -8.13473 50
      vertex 19.563 -4.15823 30
      vertex 19.563 -4.15823 50
    endloop
  endfacet
  facet normal 0.951053 -0.309029 0
    outer loop
      vertex 19.563 -4.15823 30
      vertex 18.2709 -8.13473 50
      vertex 18.2709 -8.13473 30
    endloop
  endfacet
  facet normal 0 0 -1
    outer loop
      vertex 19.563 -4.15823 30
      vertex 19.563 4.15823 30
      vertex 20 0 30
    endloop
  endfacet
  facet normal 0 0 -1
    outer loop
      vertex 18.2709 -8.13473 30
      vertex 19.563 4.15823 30
      vertex 19.563 -4.15823 30
    endloop
  endfacet
  facet normal 0 0 -1
    outer loop
      vertex 18.2709 -8.13473 30
      vertex 18.2709 8.13473 30
      vertex 19.563 4.15823 30
    endloop
  endfacet
  facet normal 0 0 -1
    outer loop
      vertex 16.1803 -11.7557 30
      vertex 18.2709 8.13473 30
      vertex 18.2709 -8.13473 30
    endloop
  endfacet
  facet normal 0 0 -1
    outer loop
      vertex 16.1803 -11.7557 30
      vertex 16.1803 11.7557 30
      vertex 18.2709 8.13473 30
    endloop
  endfacet
  facet normal 0 0 -1
    outer loop
      vertex 13.3826 -14.8629 30
      vertex 16.1803 11.7557 30
      vertex 16.1803 -11.7557 30
    endloop
  endfacet
  facet normal 0 0 -1
    outer loop
      vertex 13.3826 -14.8629 30
      vertex 13.3826 14.8629 30
      vertex 16.1803 11.7557 30
    endloop
  endfacet
  facet normal 0 0 -1
    outer loop
      vertex 10 -17.3205 30
      vertex 13.3826 14.8629 30
      vertex 13.3826 -14.8629 30
    endloop
  endfacet
  facet normal 0 0 -1
    outer loop
      vertex 10 -17.3205 30
      vertex 10 17.3205 30
      vertex 13.3826 14.8629 30
    endloop
  endfacet
  facet normal 0 0 -1
    outer loop
      vertex 6.18034 -19.0211 30
      vertex 10 17.3205 30
      vertex 10 -17.3205 30
    endloop
  endfacet
  facet normal 0 0 -1
    outer loop
      vertex 6.18034 -19.0211 30
      vertex 6.18034 19.0211 30
      vertex 10 17.3205 30
    endloop
  endfacet
  facet normal 0 0 -1
    outer loop
      vertex 2.09057 -19.8904 30
      vertex 6.18034 19.0211 30
      vertex 6.18034 -19.0211 30
    endloop
  endfacet
  facet normal 0 0 -1
    outer loop
      vertex 2.09057 -19.8904 30
      vertex 2.09057 19.8904 30
      vertex 6.18034 19.0211 30
    endloop
  endfacet
  facet normal 0 0 -1
    outer loop
      vertex -2.09057 -19.8904 30
      vertex 2.09057 19.8904 30
      vertex 2.09057 -19.8904 30
    endloop
  endfacet
  facet normal 0 0 -1
    outer loop
      vertex -2.09057 -19.8904 30
      vertex -2.09057 19.8904 30
      vertex 2.09057 19.8904 30
    endloop
  endfacet
  facet normal 0 0 -1
    outer loop
      vertex -6.18034 -19.0211 30
      vertex -2.09057 19.8904 30
      vertex -2.09057 -19.8904 30
    endloop
  endfacet
  facet normal 0 0 -1
    outer loop
      vertex -6.18034 -19.0211 30
      vertex -6.18034 19.0211 30
      vertex -2.09057 19.8904 30
    endloop
  endfacet
  facet normal 0 0 -1
    outer loop
      vertex -10 -17.3205 30
      vertex -6.18034 19.0211 30
      vertex -6.18034 -19.0211 30
    endloop
  endfacet
  facet normal 0 0 -1
    outer loop
      vertex -10 -17.3205 30
      vertex -10 17.3205 30
      vertex -6.18034 19.0211 30
    endloop
  endfacet
  facet normal 0 0 -1
    outer loop
      vertex -13.3826 -14.8629 30
      vertex -10 17.3205 30
      vertex -10 -17.3205 30
    endloop
  endfacet
  facet normal 0 0 -1
    outer loop
      vertex -13.3826 -14.8629 30
      vertex -13.3826 14.8629 30
      vertex -10 17.3205 30
    endloop
  endfacet
  facet normal 0 0 -1
    outer loop
      vertex -16.1803 -11.7557 30
      vertex -13.3826 14.8629 30
      vertex -13.3826 -14.8629 30
    endloop
  endfacet
  facet normal 0 0 -1
    outer loop
      vertex -16.1803 -11.7557 30
      vertex -16.1803 11.7557 30
      vertex -13.3826 14.8629 30
    endloop
  endfacet
  facet normal 0 0 -1
    outer loop
      vertex -18.2709 -8.13473 30
      vertex -16.1803 11.7557 30
      vertex -16.1803 -11.7557 30
    endloop
  endfacet
  facet normal 0 0 -1
    outer loop
      vertex -18.2709 -8.13473 30
      vertex -18.2709 8.13473 30
      vertex -16.1803 11.7557 30
    endloop
  endfacet
  facet normal 0 0 -1
    outer loop
      vertex -19.563 -4.15823 30
      vertex -18.2709 8.13473 30
      vertex -18.2709 -8.13473 30
    endloop
  endfacet
  facet normal 0 0 -1
    outer loop
      vertex -19.563 -4.15823 30
      vertex -19.563 4.15823 30
      vertex -18.2709 8.13473 30
    endloop
  endfacet
  facet normal 0 -0 -1
    outer loop
      vertex -19.563 4.15823 30
      vertex -19.563 -4.15823 30
      vertex -20 0 30
    endloop
  endfacet
  facet normal 0.406732 0.913547 -0
    outer loop
      vertex 10 17.3205 30
      vertex 6.18034 19.0211 50
      vertex 10 17.3205 50
    endloop
  endfacet
  facet normal 0.406732 0.913547 0
    outer loop
      vertex 6.18034 19.0211 50
      vertex 10 17.3205 30
      vertex 6.18034 19.0211 30
    endloop
  endfacet
  facet normal -0.406732 0.913547 0
    outer loop
      vertex -6.18034 19.0211 30
      vertex -10 17.3205 50
      vertex -6.18034 19.0211 50
    endloop
  endfacet
  facet normal -0.406732 0.913547 0
    outer loop
      vertex -10 17.3205 50
      vertex -6.18034 19.0211 30
      vertex -10 17.3205 30
    endloop
  endfacet
  facet normal 0.866022 -0.500006 0
    outer loop
      vertex 16.1803 -11.7557 50
      vertex 18.2709 -8.13473 30
      vertex 18.2709 -8.13473 50
    endloop
  endfacet
  facet normal 0.866022 -0.500006 0
    outer loop
      vertex 18.2709 -8.13473 30
      vertex 16.1803 -11.7557 50
      vertex 16.1803 -11.7557 30
    endloop
  endfacet
  facet normal -0.406732 -0.913547 0
    outer loop
      vertex -10 -17.3205 30
      vertex -6.18034 -19.0211 50
      vertex -10 -17.3205 50
    endloop
  endfacet
  facet normal -0.406732 -0.913547 -0
    outer loop
      vertex -6.18034 -19.0211 50
      vertex -10 -17.3205 30
      vertex -6.18034 -19.0211 30
    endloop
  endfacet
  facet normal 0 1 -0
    outer loop
      vertex 2.09057 19.8904 30
      vertex -2.09057 19.8904 50
      vertex 2.09057 19.8904 50
    endloop
  endfacet
  facet normal 0 1 0
    outer loop
      vertex -2.09057 19.8904 50
      vertex 2.09057 19.8904 30
      vertex -2.09057 19.8904 30
    endloop
  endfacet
  facet normal 0.743149 -0.669126 0
    outer loop
      vertex 13.3826 -14.8629 50
      vertex 16.1803 -11.7557 30
      vertex 16.1803 -11.7557 50
    endloop
  endfacet
  facet normal 0.743149 -0.669126 0
    outer loop
      vertex 16.1803 -11.7557 30
      vertex 13.3826 -14.8629 50
      vertex 13.3826 -14.8629 30
    endloop
  endfacet
  facet normal 0.743149 0.669126 0
    outer loop
      vertex 16.1803 11.7557 50
      vertex 13.3826 14.8629 30
      vertex 13.3826 14.8629 50
    endloop
  endfacet
  facet normal 0.743149 0.669126 0
    outer loop
      vertex 13.3826 14.8629 30
      vertex 16.1803 11.7557 50
      vertex 16.1803 11.7557 30
    endloop
  endfacet
  facet normal 0.20791 0.978148 -0
    outer loop
      vertex 6.18034 19.0211 30
      vertex 2.09057 19.8904 50
      vertex 6.18034 19.0211 50
    endloop
  endfacet
  facet normal 0.20791 0.978148 0
    outer loop
      vertex 2.09057 19.8904 50
      vertex 6.18034 19.0211 30
      vertex 2.09057 19.8904 30
    endloop
  endfacet
  facet normal -0.951053 -0.309029 0
    outer loop
      vertex -18.2709 -8.13473 30
      vertex -19.563 -4.15823 50
      vertex -19.563 -4.15823 30
    endloop
  endfacet
  facet normal -0.951053 -0.309029 0
    outer loop
      vertex -19.563 -4.15823 50
      vertex -18.2709 -8.13473 30
      vertex -18.2709 -8.13473 50
    endloop
  endfacet
  facet normal -0.587785 -0.809017 0
    outer loop
      vertex -13.3826 -14.8629 30
      vertex -10 -17.3205 50
      vertex -13.3826 -14.8629 50
    endloop
  endfacet
  facet normal -0.587785 -0.809017 -0
    outer loop
      vertex -10 -17.3205 50
      vertex -13.3826 -14.8629 30
      vertex -10 -17.3205 30
    endloop
  endfacet
  facet normal -0.743149 0.669126 0
    outer loop
      vertex -16.1803 11.7557 30
      vertex -13.3826 14.8629 50
      vertex -13.3826 14.8629 30
    endloop
  endfacet
  facet normal -0.743149 0.669126 0
    outer loop
      vertex -13.3826 14.8629 50
      vertex -16.1803 11.7557 30
      vertex -16.1803 11.7557 50
    endloop
  endfacet
  facet normal -0.587785 0.809017 0
    outer loop
      vertex -10 17.3205 30
      vertex -13.3826 14.8629 50
      vertex -10 17.3205 50
    endloop
  endfacet
  facet normal -0.587785 0.809017 0
    outer loop
      vertex -13.3826 14.8629 50
      vertex -10 17.3205 30
      vertex -13.3826 14.8629 30
    endloop
  endfacet
  facet normal -0.994523 -0.104517 0
    outer loop
      vertex -19.563 -4.15823 30
      vertex -20 0 50
      vertex -20 0 30
    endloop
  endfacet
  facet normal -0.994523 -0.104517 0
    outer loop
      vertex -20 0 50
      vertex -19.563 -4.15823 30
      vertex -19.563 -4.15823 50
    endloop
  endfacet
  facet normal -0.20791 -0.978148 0
    outer loop
      vertex -6.18034 -19.0211 30
      vertex -2.09057 -19.8904 50
      vertex -6.18034 -19.0211 50
    endloop
  endfacet
  facet normal -0.20791 -0.978148 -0
    outer loop
      vertex -2.09057 -19.8904 50
      vertex -6.18034 -19.0211 30
      vertex -2.09057 -19.8904 30
    endloop
  endfacet
  facet normal 0 0 1
    outer loop
      vertex 19.563 4.15823 50
      vertex 19.563 -4.15823 50
      vertex 20 0 50
    endloop
  endfacet
  facet normal 0 0 1
    outer loop
      vertex 18.2709 8.13473 50
      vertex 19.563 -4.15823 50
      vertex 19.563 4.15823 50
    endloop
  endfacet
  facet normal 0 0 1
    outer loop
      vertex 18.2709 8.13473 50
      vertex 18.2709 -8.13473 50
      vertex 19.563 -4.15823 50
    endloop
  endfacet
  facet normal 0 0 1
    outer loop
      vertex 16.1803 11.7557 50
      vertex 18.2709 -8.13473 50
      vertex 18.2709 8.13473 50
    endloop
  endfacet
  facet normal 0 0 1
    outer loop
      vertex 16.1803 11.7557 50
      vertex 16.1803 -11.7557 50
      vertex 18.2709 -8.13473 50
    endloop
  endfacet
  facet normal 0 0 1
    outer loop
      vertex 13.3826 14.8629 50
      vertex 16.1803 -11.7557 50
      vertex 16.1803 11.7557 50
    endloop
  endfacet
  facet normal 0 0 1
    outer loop
      vertex 13.3826 14.8629 50
      vertex 13.3826 -14.8629 50
      vertex 16.1803 -11.7557 50
    endloop
  endfacet
  facet normal 0 0 1
    outer loop
      vertex 10 17.3205 50
      vertex 13.3826 -14.8629 50
      vertex 13.3826 14.8629 50
    endloop
  endfacet
  facet normal 0 0 1
    outer loop
      vertex 10 17.3205 50
      vertex 10 -17.3205 50
      vertex 13.3826 -14.8629 50
    endloop
  endfacet
  facet normal 0 0 1
    outer loop
      vertex 6.18034 19.0211 50
      vertex 10 -17.3205 50
      vertex 10 17.3205 50
    endloop
  endfacet
  facet normal 0 0 1
    outer loop
      vertex 6.18034 19.0211 50
      vertex 6.18034 -19.0211 50
      vertex 10 -17.3205 50
    endloop
  endfacet
  facet normal 0 0 1
    outer loop
      vertex 2.09057 19.8904 50
      vertex 6.18034 -19.0211 50
      vertex 6.18034 19.0211 50
    endloop
  endfacet
  facet normal 0 0 1
    outer loop
      vertex 2.09057 19.8904 50
      vertex 2.09057 -19.8904 50
      vertex 6.18034 -19.0211 50
    endloop
  endfacet
  facet normal -0 0 1
    outer loop
      vertex -2.09057 19.8904 50
      vertex 2.09057 -19.8904 50
      vertex 2.09057 19.8904 50
    endloop
  endfacet
  facet normal 0 0 1
    outer loop
      vertex -2.09057 19.8904 50
      vertex -2.09057 -19.8904 50
      vertex 2.09057 -19.8904 50
    endloop
  endfacet
  facet normal -0 0 1
    outer loop
      vertex -6.18034 19.0211 50
      vertex -2.09057 -19.8904 50
      vertex -2.09057 19.8904 50
    endloop
  endfacet
  facet normal 0 0 1
    outer loop
      vertex -6.18034 19.0211 50
      vertex -6.18034 -19.0211 50
      vertex -2.09057 -19.8904 50
    endloop
  endfacet
  facet normal -0 0 1
    outer loop
      vertex -10 17.3205 50
      vertex -6.18034 -19.0211 50
      vertex -6.18034 19.0211 50
    endloop
  endfacet
  facet normal 0 0 1
    outer loop
      vertex -10 17.3205 50
      vertex -10 -17.3205 50
      vertex -6.18034 -19.0211 50
    endloop
  endfacet
  facet normal -0 0 1
    outer loop
      vertex -13.3826 14.8629 50
      vertex -10 -17.3205 50
      vertex -10 17.3205 50
    endloop
  endfacet
  facet normal 0 0 1
    outer loop
      vertex -13.3826 14.8629 50
      vertex -13.3826 -14.8629 50
      vertex -10 -17.3205 50
    endloop
  endfacet
  facet normal -0 0 1
    outer loop
      vertex -16.1803 11.7557 50
      vertex -13.3826 -14.8629 50
      vertex -13.3826 14.8629 50
    endloop
  endfacet
  facet normal 0 0 1
    outer loop
      vertex -16.1803 11.7557 50
      vertex -16.1803 -11.7557 50
      vertex -13.3826 -14.8629 50
    endloop
  endfacet
  facet normal -0 0 1
    outer loop
      vertex -18.2709 8.13473 50
      vertex -16.1803 -11.7557 50
      vertex -16.1803 11.7557 50
    endloop
  endfacet
  facet normal 0 0 1
    outer loop
      vertex -18.2709 8.13473 50
      vertex -18.2709 -8.13473 50
      vertex -16.1803 -11.7557 50
    endloop
  endfacet
  facet normal -0 0 1
    outer loop
      vertex -19.563 4.15823 50
      vertex -18.2709 -8.13473 50
      vertex -18.2709 8.13473 50
    endloop
  endfacet
  facet normal 0 0 1
    outer loop
      vertex -19.563 4.15823 50
      vertex -19.563 -4.15823 50
      vertex -18.2709 -8.13473 50
    endloop
  endfacet
  facet normal 0 -0 1
    outer loop
      vertex -19.563 -4.15823 50
      vertex -19.563 4.15823 50
      vertex -20 0 50
    endloop
  endfacet
  facet normal 0 -0.382668 0.923886
    outer loop
      vertex 20 0 42.5
      vertex 50 -1.76777 41.7678
      vertex 50 0 42.5
    endloop
  endfacet
  facet normal 0 -0.382668 0.923886
    outer loop
      vertex 50 -1.76777 41.7678
      vertex 20 0 42.5
      vertex 19.8142 -1.76777 41.7678
    endloop
  endfacet
  facet normal 0 -0.923883 -0.382676
    outer loop
      vertex 19.8142 -1.76777 38.2322
      vertex 50 -2.5 40
      vertex 19.7372 -2.5 40
    endloop
  endfacet
  facet normal 0 -0.923883 -0.382676
    outer loop
      vertex 50 -2.5 40
      vertex 19.8142 -1.76777 38.2322
      vertex 50 -1.76777 38.2322
    endloop
  endfacet
  facet normal 0 0.382668 -0.923886
    outer loop
      vertex 20 0 37.5
      vertex 50 1.76777 38.2322
      vertex 50 0 37.5
    endloop
  endfacet
  facet normal 0 0.382668 -0.923886
    outer loop
      vertex 50 1.76777 38.2322
      vertex 20 0 37.5
      vertex 19.8142 1.76777 38.2322
    endloop
  endfacet
  facet normal 0 0.923883 -0.382676
    outer loop
      vertex 19.8142 1.76777 38.2322
      vertex 50 2.5 40
      vertex 50 1.76777 38.2322
    endloop
  endfacet
  facet normal 0 0.923883 -0.382676
    outer loop
      vertex 50 2.5 40
      vertex 19.8142 1.76777 38.2322
      vertex 19.7372 2.5 40
    endloop
  endfacet
  facet normal 0 -0.382668 -0.923886
    outer loop
      vertex 50 -1.76777 38.2322
      vertex 20 0 37.5
      vertex 50 0 37.5
    endloop
  endfacet
  facet normal 0 -0.382668 -0.923886
    outer loop
      vertex 20 0 37.5
      vertex 50 -1.76777 38.2322
      vertex 19.8142 -1.76777 38.2322
    endloop
  endfacet
  facet normal 0 -0.923883 0.382676
    outer loop
      vertex 50 -2.5 40
      vertex 19.8142 -1.76777 41.7678
      vertex 19.7372 -2.5 40
    endloop
  endfacet
  facet normal 0 -0.923883 0.382676
    outer loop
      vertex 19.8142 -1.76777 41.7678
      vertex 50 -2.5 40
      vertex 50 -1.76777 41.7678
    endloop
  endfacet
  facet normal 1 0 0
    outer loop
      vertex 50 1.76777 41.7678
      vertex 50 1.76777 38.2322
      vertex 50 2.5 40
    endloop
  endfacet
  facet normal 1 0 0
    outer loop
      vertex 50 0 42.5
      vertex 50 1.76777 38.2322
      vertex 50 1.76777 41.7678
    endloop
  endfacet
  facet normal 1 0 0
    outer loop
      vertex 50 0 42.5
      vertex 50 0 37.5
      vertex 50 1.76777 38.2322
    endloop
  endfacet
  facet normal 1 -0 0
    outer loop
      vertex 50 -1.76777 41.7678
      vertex 50 0 37.5
      vertex 50 0 42.5
    endloop
  endfacet
  facet normal 1 0 0
    outer loop
      vertex 50 -1.76777 41.7678
      vertex 50 -1.76777 38.2322
      vertex 50 0 37.5
    endloop
  endfacet
  facet normal 1 0 -0
    outer loop
      vertex 50 -1.76777 38.2322
      vertex 50 -1.76777 41.7678
      vertex 50 -2.5 40
    endloop
  endfacet
  facet normal 0 0.382668 0.923886
    outer loop
      vertex 50 1.76777 41.7678
      vertex 20 0 42.5
      vertex 50 0 42.5
    endloop
  endfacet
  facet normal 0 0.382668 0.923886
    outer loop
      vertex 20 0 42.5
      vertex 50 1.76777 41.7678
      vertex 19.8142 1.76777 41.7678
    endloop
  endfacet
  facet normal 0 0.923883 0.382676
    outer loop
      vertex 50 2.5 40
      vertex 19.8142 1.76777 41.7678
      vertex 50 1.76777 41.7678
    endloop
  endfacet
  facet normal 0 0.923883 0.382676
    outer loop
      vertex 19.8142 1.76777 41.7678
      vertex 50 2.5 40
      vertex 19.7372 2.5 40
    endloop
  endfacet
endsolid OpenSCAD_Model
